<svg width="247.286133" height="238.338257" viewBox="0 0 247.286 238.338" fill="none" xmlns="http://www.w3.org/2000/svg" xmlns:xlink="http://www.w3.org/1999/xlink">
	<desc>
			Created with Pixso.
	</desc>
	<defs/>
	<path id="Vector" d="M163.24 93.53C166.09 94.31 245.3 127.34 245.3 127.34L161.26 136.24L214.35 203.49L139.5 157.56L131.87 235.41L110.78 153.42L40.46 192.42L88.9 135.18L2.93 131.31L83.73 107.41L23.69 39.19L108.1 78.37L127.42 2.78L136.1 78.53L212.99 26.28L163.24 93.53Z" fill="#BCEC30" fill-opacity="1.000000" fill-rule="nonzero"/>
	<path id="Vector" d="M245.3 127.34L161.26 136.24L214.35 203.49L139.5 157.56L131.87 235.41L110.78 153.42L40.46 192.42L88.9 135.18L2.93 131.31L83.73 107.41L23.69 39.19L108.1 78.37L127.42 2.78L136.1 78.53L212.99 26.28L163.24 93.53C166.09 94.31 245.3 127.34 245.3 127.34Z" stroke="#202027" stroke-opacity="1.000000" stroke-width="1.000000"/>
</svg>
