<svg width="37.594727" height="36.249756" viewBox="0 0 37.5947 36.2498" fill="none" xmlns="http://www.w3.org/2000/svg" xmlns:xlink="http://www.w3.org/1999/xlink">
	<desc>
			Created with Pixso.
	</desc>
	<defs/>
	<path id="Vector" d="M32.28 7.44C29.18 6.18 25.75 5.8 22.41 6.37C19.93 6.72 17.5 7.33 15.17 8.2L12.64 2.36C12.18 1.39 11.32 0.63 10.26 0.25C9.2 -0.12 8.02 -0.09 6.98 0.35C5.92 0.74 5.05 1.5 4.58 2.48C4.1 3.45 4.05 4.56 4.45 5.57L9.2 16.58L6.58 15.57C5.42 15.13 4.13 15.14 2.97 15.59C1.82 16.04 0.89 16.9 0.39 17.99C0.14 18.53 0.01 19.1 0 19.69C-0.01 20.28 0.1 20.86 0.33 21.4C0.76 22.45 1.62 23.3 2.72 23.76L10.81 27.7C11.74 29.15 12.95 30.42 14.38 31.45C15.45 32.25 16.65 32.89 17.93 33.33L18.85 35.45C18.97 35.75 19.22 35.99 19.53 36.13C19.85 36.26 20.2 36.28 20.53 36.18L36.83 29.81C37.14 29.66 37.38 29.41 37.5 29.1C37.62 28.8 37.62 28.46 37.48 28.16L36.2 25.19C37.39 21.71 37.22 17.96 35.74 14.61L32.88 8C32.76 7.76 32.55 7.56 32.28 7.44ZM33.42 15.58C34.76 18.48 34.9 21.75 33.83 24.76C33.65 25.06 33.61 25.41 33.7 25.74L34.73 28.12L20.84 33.55L20.13 31.92C20.05 31.74 19.93 31.58 19.77 31.46C19.61 31.33 19.42 31.25 19.22 31.21C18.05 30.87 16.97 30.32 16.03 29.59C14.77 28.69 13.72 27.56 12.95 26.26C12.83 26.03 12.64 25.83 12.4 25.71L3.87 21.56C3.6 21.46 3.36 21.31 3.16 21.12C2.96 20.93 2.8 20.71 2.7 20.46C2.59 20.21 2.54 19.95 2.54 19.68C2.54 19.41 2.6 19.14 2.71 18.9C2.95 18.39 3.38 17.98 3.92 17.77C4.46 17.56 5.07 17.56 5.61 17.76L10.55 19.69L12.04 23.15L13.91 21.13L6.79 4.65C6.66 4.23 6.7 3.78 6.91 3.39C7.13 3 7.5 2.7 7.94 2.56C8.36 2.36 8.84 2.33 9.28 2.47C9.72 2.6 10.09 2.89 10.3 3.28L15.92 16.27L18.46 15.83L16.12 10.41C17.11 10.05 18.12 9.73 19.15 9.46L21.64 15.22L23.68 14.87L21.13 8.98C21.65 8.88 22.18 8.79 22.74 8.71C23.41 8.62 24.09 8.57 24.77 8.55L27.22 14.22L29.26 13.87L26.99 8.62C28.27 8.71 29.53 8.97 30.74 9.38L33.42 15.58Z" fill="#000000" fill-opacity="1.000000" fill-rule="nonzero"/>
</svg>
